<?xml version="1.0" encoding="UTF-8"?><svg id="_レイヤー_2" xmlns="http://www.w3.org/2000/svg" viewBox="0 0 286 70.73"><defs><style>.cls-1{fill:#ed1d24;}.cls-2{fill:#616d64;}.cls-3{fill:#fff;font-family:DIN2014-Bold, 'DIN 2014';font-size:61.94px;font-weight:700;}</style></defs><g id="Layer_1"><g><text class="cls-3" transform="translate(81.67 52.34)"><tspan x="0" y="0">AMDlab</tspan></text><path class="cls-2" d="m52.86,52.7c0,.89-.6,1.66-1.49,1.92l-27.56,7.96c-.89.26-1.49-.17-1.49-1.06v-27.56c0-.89.59-1.66,1.49-1.92l27.56-7.95c.89-.26,1.49.16,1.49,1.06v27.56Z"/><path class="cls-2" d="m22.09,27.57c-.89.26-1.83.13-2.35-.31L3.83,13.48c-.52-.45-.26-.92.63-1.17l27.56-7.96c.89-.26,1.83-.13,2.35.31l15.91,13.78c.52.45.26.92-.63,1.17l-27.56,7.96Z"/><path class="cls-1" d="m17.63,60.88c0,.89-.34,1.19-.86.74L.86,47.85c-.51-.45-.86-1.34-.86-2.23v-27.56c0-.89.34-1.19.86-.74l15.91,13.78c.51.45.86,1.34.86,2.23v27.56Z"/></g></g></svg>